<svg xmlns="http://www.w3.org/2000/svg" width="150" height="90" viewBox="0 0 150 90">
  <path fill="#212121" fill-rule="nonzero" d="M70.5,72 L70.5,76 C70.5,76.8284271 69.8284271,77.5 69,77.5 L64.5,77.5 L64.5,82 C64.5,82.8284271 63.8284271,83.5 63,83.5 L35,83.5 C34.1715729,83.5 33.5,82.8284271 33.5,82 L33.5,44 C33.5,43.1715729 34.1715729,42.5 35,42.5 L39.5,42.5 L39.5,38 C39.5,37.1715729 40.1715729,36.5 41,36.5 L64.2071068,36.5 L70.5,42.7928932 L70.5,71.0163934 L72.253484,71.0163934 L72.253484,72 L70.5,72 Z M28.6498803,71.0163934 L28.6498803,72 L26.6678984,72 L26.6678984,71.0163934 L28.6498803,71.0163934 Z M24.6859164,71.0163934 L24.6859164,72 L22.7039344,72 L22.7039344,71.0163934 L24.6859164,71.0163934 Z M20.990991,69.7657531 L20.990991,72 L20,72 L20,69.7657531 L20.990991,69.7657531 Z M20.990991,67.79854 L20,67.79854 L20,65.8313268 L20.990991,65.8313268 L20.990991,67.79854 Z M20.990991,63.8641137 L20,63.8641137 L20,61.8969006 L20.990991,61.8969006 L20.990991,63.8641137 Z M20.990991,59.9296875 L20,59.9296875 L20,57.9624744 L20.990991,57.9624744 L20.990991,59.9296875 Z M20.990991,55.9952613 L20,55.9952613 L20,54.0280482 L20.990991,54.0280482 L20.990991,55.9952613 Z M20.990991,52.060835 L20,52.060835 L20,50.0936219 L20.990991,50.0936219 L20.990991,52.060835 Z M20.990991,48.1264088 L20,48.1264088 L20,46.1591957 L20.990991,46.1591957 L20.990991,48.1264088 Z M20.990991,44.1919826 L20,44.1919826 L20,42.2247695 L20.990991,42.2247695 L20.990991,44.1919826 Z M20.990991,40.2575564 L20,40.2575564 L20,38.2903432 L20.990991,38.2903432 L20.990991,40.2575564 Z M20.990991,36.3231301 L20,36.3231301 L20,34.355917 L20.990991,34.355917 L20.990991,36.3231301 Z M20.990991,32.3887039 L20,32.3887039 L20,30.4214908 L20.990991,30.4214908 L20.990991,32.3887039 Z M20.990991,28.4542777 L20,28.4542777 L20,26.4870645 L20.990991,26.4870645 L20.990991,28.4542777 Z M20.990991,24.5198514 L20,24.5198514 L20,22.5526383 L20.990991,22.5526383 L20.990991,24.5198514 Z M20.990991,20.5854252 L20,20.5854252 L20,18.6182121 L20.990991,18.6182121 L20.990991,20.5854252 Z M20.990991,16.650999 L20,16.650999 L20,14.6837859 L20.990991,14.6837859 L20.990991,16.650999 Z M22.2510206,12.9836066 L20,12.9836066 L20,12 L22.2510206,12 L22.2510206,12.9836066 Z M24.2330025,12.9836066 L24.2330025,12 L26.2149845,12 L26.2149845,12.9836066 L24.2330025,12.9836066 Z M28.1969665,12.9836066 L28.1969665,12 L30.1789485,12 L30.1789485,12.9836066 L28.1969665,12.9836066 Z M32.1609305,12.9836066 L32.1609305,12 L34.1429124,12 L34.1429124,12.9836066 L32.1609305,12.9836066 Z M36.1248944,12.9836066 L36.1248944,12 L38.1068764,12 L38.1068764,12.9836066 L36.1248944,12.9836066 Z M40.0888584,12.9836066 L40.0888584,12 L42.0708404,12 L42.0708404,12.9836066 L40.0888584,12.9836066 Z M44.0528224,12.9836066 L44.0528224,12 L46.0348043,12 L46.0348043,12.9836066 L44.0528224,12.9836066 Z M48.0167863,12.9836066 L48.0167863,12 L49.9987683,12 L49.9987683,12.9836066 L48.0167863,12.9836066 Z M51.9807503,12.9836066 L51.9807503,12 L53.9627323,12 L53.9627323,12.9836066 L51.9807503,12.9836066 Z M55.9447142,12.9836066 L55.9447142,12 L57.9266962,12 L57.9266962,12.9836066 L55.9447142,12.9836066 Z M59.9086782,12.9836066 L59.9086782,12 L61.8906602,12 L61.8906602,12.9836066 L59.9086782,12.9836066 Z M63.8726422,12.9836066 L63.8726422,12 L65.8546242,12 L65.8546242,12.9836066 L63.8726422,12.9836066 Z M67.8366061,12.9836066 L67.8366061,12 L69.8185881,12 L69.8185881,12.9836066 L67.8366061,12.9836066 Z M71.8005701,12.9836066 L71.8005701,12 L73.7825521,12 L73.7825521,12.9836066 L71.8005701,12.9836066 Z M75.7645341,12.9836066 L75.7645341,12 L77.746516,12 L77.746516,12.9836066 L75.7645341,12.9836066 Z M79.728498,12.9836066 L79.728498,12 L81.71048,12 L81.71048,12.9836066 L79.728498,12.9836066 Z M83.692462,12.9836066 L83.692462,12 L85.674444,12 L85.674444,12.9836066 L83.692462,12.9836066 Z M87.656426,12.9836066 L87.656426,12 L89.6384079,12 L89.6384079,12.9836066 L87.656426,12.9836066 Z M91.6203899,12.9836066 L91.6203899,12 L93.6023719,12 L93.6023719,12.9836066 L91.6203899,12.9836066 Z M95.5843539,12.9836066 L95.5843539,12 L97.5663359,12 L97.5663359,12.9836066 L95.5843539,12.9836066 Z M99.5483178,12.9836066 L99.5483178,12 L101.5303,12 L101.5303,12.9836066 L99.5483178,12.9836066 Z M103.512282,12.9836066 L103.512282,12 L105.494264,12 L105.494264,12.9836066 L103.512282,12.9836066 Z M107.476246,12.9836066 L107.476246,12 L109.458228,12 L109.458228,12.9836066 L107.476246,12.9836066 Z M111.44021,12.9836066 L111.44021,12 L113.422192,12 L113.422192,12.9836066 L111.44021,12.9836066 Z M115.404174,12.9836066 L115.404174,12 L117.386156,12 L117.386156,12.9836066 L115.404174,12.9836066 Z M119.368138,12.9836066 L119.368138,12 L121.35012,12 L121.35012,12.9836066 L119.368138,12.9836066 Z M123.332102,12.9836066 L123.332102,12 L125.314084,12 L125.314084,12.9836066 L123.332102,12.9836066 Z M127.296066,12.9836066 L127.296066,12 L129.278048,12 L129.278048,12.9836066 L127.296066,12.9836066 Z M129.009009,14.2342469 L130,14.2342469 L130,16.20146 L129.009009,16.20146 L129.009009,14.2342469 Z M129.009009,18.1686732 L130,18.1686732 L130,20.1358863 L129.009009,20.1358863 L129.009009,18.1686732 Z M129.009009,22.1030994 L130,22.1030994 L130,24.0703125 L129.009009,24.0703125 L129.009009,22.1030994 Z M129.009009,26.0375256 L130,26.0375256 L130,28.0047387 L129.009009,28.0047387 L129.009009,26.0375256 Z M129.009009,29.9719518 L130,29.9719518 L130,31.939165 L129.009009,31.939165 L129.009009,29.9719518 Z M129.009009,33.9063781 L130,33.9063781 L130,35.8735912 L129.009009,35.8735912 L129.009009,33.9063781 Z M129.009009,37.8408043 L130,37.8408043 L130,39.8080174 L129.009009,39.8080174 L129.009009,37.8408043 Z M129.009009,41.7752305 L130,41.7752305 L130,43.7424436 L129.009009,43.7424436 L129.009009,41.7752305 Z M129.009009,45.7096568 L130,45.7096568 L130,47.6768699 L129.009009,47.6768699 L129.009009,45.7096568 Z M129.009009,49.644083 L130,49.644083 L130,51.6112961 L129.009009,51.6112961 L129.009009,49.644083 Z M129.009009,53.5785092 L130,53.5785092 L130,55.5457223 L129.009009,55.5457223 L129.009009,53.5785092 Z M129.009009,57.5129355 L130,57.5129355 L130,59.4801486 L129.009009,59.4801486 L129.009009,57.5129355 Z M129.009009,61.4473617 L130,61.4473617 L130,63.4145748 L129.009009,63.4145748 L129.009009,61.4473617 Z M129.009009,65.3817879 L130,65.3817879 L130,67.349001 L129.009009,67.349001 L129.009009,65.3817879 Z M129.009009,69.3162141 L130,69.3162141 L130,71.2834273 L129.009009,71.2834273 L129.009009,69.3162141 Z M127.748979,71.0163934 L127.748979,72 L125.766997,72 L125.766997,71.0163934 L127.748979,71.0163934 Z M123.785015,71.0163934 L123.785015,72 L121.803034,72 L121.803034,71.0163934 L123.785015,71.0163934 Z M119.821052,71.0163934 L119.821052,72 L117.83907,72 L117.83907,71.0163934 L119.821052,71.0163934 Z M115.857088,71.0163934 L115.857088,72 L113.875106,72 L113.875106,71.0163934 L115.857088,71.0163934 Z M111.893124,71.0163934 L111.893124,72 L109.911142,72 L109.911142,71.0163934 L111.893124,71.0163934 Z M107.92916,71.0163934 L107.92916,72 L105.947178,72 L105.947178,71.0163934 L107.92916,71.0163934 Z M103.965196,71.0163934 L103.965196,72 L101.983214,72 L101.983214,71.0163934 L103.965196,71.0163934 Z M100.001232,71.0163934 L100.001232,72 L98.0192497,72 L98.0192497,71.0163934 L100.001232,71.0163934 Z M96.0372677,71.0163934 L96.0372677,72 L94.0552858,72 L94.0552858,71.0163934 L96.0372677,71.0163934 Z M92.0733038,71.0163934 L92.0733038,72 L90.0913218,72 L90.0913218,71.0163934 L92.0733038,71.0163934 Z M88.1093398,71.0163934 L88.1093398,72 L86.1273578,72 L86.1273578,71.0163934 L88.1093398,71.0163934 Z M84.1453758,71.0163934 L84.1453758,72 L82.1633939,72 L82.1633939,71.0163934 L84.1453758,71.0163934 Z M80.1814119,71.0163934 L80.1814119,72 L78.1994299,72 L78.1994299,71.0163934 L80.1814119,71.0163934 Z M76.2174479,71.0163934 L76.2174479,72 L74.2354659,72 L74.2354659,71.0163934 L76.2174479,71.0163934 Z M63.5,50 L57,50 L57,49 L57,43.5 L35,43.5 C34.7238576,43.5 34.5,43.7238576 34.5,44 L34.5,82 C34.5,82.2761424 34.7238576,82.5 35,82.5 L63,82.5 C63.2761424,82.5 63.5,82.2761424 63.5,82 L63.5,50 Z M63.2928932,49 L58,43.7071068 L58,49 L63.2928932,49 Z M40.5,42.5 L58.2071068,42.5 L64.5,48.7928932 L64.5,76.5 L69,76.5 C69.2761424,76.5 69.5,76.2761424 69.5,76 L69.5,43.2071068 L63.7928932,37.5 L41,37.5 C40.7238576,37.5 40.5,37.7238576 40.5,38 L40.5,42.5 Z M40,60 L58,60 L58,61 L40,61 L40,60 Z M40,65 L58,65 L58,66 L40,66 L40,65 Z M52,70 L58,70 L58,71 L52,71 L52,70 Z M52,75 L58,75 L58,76 L52,76 L52,75 Z"/>
  <path fill="#007bff" fill-rule="nonzero" d="M68.5,41 L90,41 C93.3137085,41 96,43.6862915 96,47 C96,50.3137085 93.3137085,53 90,53 L70.5,53 L70.5,43 L68.5,41 Z M7.5,12.5 L10,12.5 L10,13.5 L7.5,13.5 L7.5,16 L6.5,16 L6.5,13.5 L4,13.5 L4,12.5 L6.5,12.5 L6.5,10 L7.5,10 L7.5,12.5 Z M135,84 C133.343146,84 132,82.6568542 132,81 C132,79.3431458 133.343146,78 135,78 C136.656854,78 138,79.3431458 138,81 C138,82.6568542 136.656854,84 135,84 Z M135,83.04 C136.126661,83.04 137.04,82.1266609 137.04,81 C137.04,79.8733391 136.126661,78.96 135,78.96 C133.873339,78.96 132.96,79.8733391 132.96,81 C132.96,82.1266609 133.873339,83.04 135,83.04 Z M12,8 C10.8954305,8 10,7.1045695 10,6 C10,4.8954305 10.8954305,4 12,4 C13.1045695,4 14,4.8954305 14,6 C14,7.1045695 13.1045695,8 12,8 Z M12,7.04 C12.5743761,7.04 13.04,6.57437614 13.04,6 C13.04,5.42562386 12.5743761,4.96 12,4.96 C11.4256239,4.96 10.96,5.42562386 10.96,6 C10.96,6.57437614 11.4256239,7.04 12,7.04 Z M48,30 L102,30 L102,33 L48,33 L48,30 Z M31,68 L49,68 C49.5522847,68 50,68.4477153 50,69 L50,75 C50,75.5522847 49.5522847,76 49,76 L31,76 C30.4477153,76 30,75.5522847 30,75 L30,69 C30,68.4477153 30.4477153,68 31,68 Z M143.805353,68.1946468 C144.064882,68.4541759 144.064882,68.8749557 143.805353,69.1344847 L142.407397,70.5324411 C142.147868,70.7919702 141.727088,70.7919702 141.467559,70.5324411 C141.20803,70.2729121 141.20803,69.8521323 141.467559,69.5926032 L142.865515,68.1946468 C143.125044,67.9351177 143.545824,67.9351177 143.805353,68.1946468 Z M140.532441,71.4675589 C140.79197,71.7270879 140.79197,72.1478677 140.532441,72.4073968 L139.134485,73.8053532 C138.874956,74.0648823 138.454176,74.0648823 138.194647,73.8053532 C137.935118,73.5458241 137.935118,73.1250443 138.194647,72.8655153 L139.592603,71.4675589 C139.852132,71.2080298 140.272912,71.2080298 140.532441,71.4675589 Z M143.805353,73.8053532 C143.545824,74.0648823 143.125044,74.0648823 142.865515,73.8053532 L141.467559,72.4073968 C141.20803,72.1478677 141.20803,71.7270879 141.467559,71.4675589 C141.727088,71.2080298 142.147868,71.2080298 142.407397,71.4675589 L143.805353,72.8655153 C144.064882,73.1250443 144.064882,73.5458241 143.805353,73.8053532 Z M140.532441,70.5324411 C140.272912,70.7919702 139.852132,70.7919702 139.592603,70.5324411 L138.194647,69.1344847 C137.935118,68.8749557 137.935118,68.4541759 138.194647,68.1946468 C138.454176,67.9351177 138.874956,67.9351177 139.134485,68.1946468 L140.532441,69.5926032 C140.79197,69.8521323 140.79197,70.2729121 140.532441,70.5324411 Z"/>
</svg>