<svg xmlns="http://www.w3.org/2000/svg" width="150" height="90" viewBox="0 0 150 90">
  <path fill="#212121" fill-rule="nonzero" d="M90,36 L84,36 L84,35 L84,30 L62,30 L62,68 L90,68 L90,36 Z M89.5857864,35 L85,30.4142136 L85,35 L89.5857864,35 Z M134,21 L134,15 L16,15 L16,21 L134,21 Z M134,22 L16,22 L16,77 L134,77 L134,22 Z M15,14 L135,14 L135,78 L15,78 L15,14 Z M62,29 L85,29 L91,35 L91,68 C91,68.5522847 90.5522847,69 90,69 L62,69 C61.4477153,69 61,68.5522847 61,68 L61,30 C61,29.4477153 61.4477153,29 62,29 Z M67,46 L85,46 L85,47 L67,47 L67,46 Z M67,51 L85,51 L85,52 L67,52 L67,51 Z M79,56 L85,56 L85,57 L79,57 L79,56 Z M79,61 L85,61 L85,62 L79,62 L79,61 Z M48.0091526,61.9173655 L40.1878222,66.4330127 L39.6878222,65.5669873 L47.5001187,61.0565558 L46.4820508,59.3349365 L51.9455676,58.7980251 L49.0272205,63.6389848 L48.0091526,61.9173655 Z M100.990847,32.0826345 L108.812178,27.5669873 L109.312178,28.4330127 L101.499881,32.9434442 L102.517949,34.6650635 L97.0544324,35.2019749 L99.9727795,30.3610152 L100.990847,32.0826345 Z"/>
  <path fill="#007bff" fill-rule="nonzero" d="M16,15 L67,15 L67,21 L16,21 L16,15 Z M143.57808,5.19464681 C143.83761,5.45417589 143.83761,5.87495567 143.57808,6.13448475 L142.180124,7.53244114 C141.920595,7.79197022 141.499815,7.79197022 141.240286,7.53244114 C140.980757,7.27291205 140.980757,6.85213228 141.240286,6.5926032 L142.638243,5.19464681 C142.897772,4.93511773 143.318551,4.93511773 143.57808,5.19464681 Z M140.305168,8.46755886 C140.564697,8.72708795 140.564697,9.14786772 140.305168,9.4073968 L138.907212,10.8053532 C138.647683,11.0648823 138.226903,11.0648823 137.967374,10.8053532 C137.707845,10.5458241 137.707845,10.1250443 137.967374,9.86551525 L139.36533,8.46755886 C139.62486,8.20802978 140.045639,8.20802978 140.305168,8.46755886 Z M143.57808,10.8053532 C143.318551,11.0648823 142.897772,11.0648823 142.638243,10.8053532 L141.240286,9.4073968 C140.980757,9.14786772 140.980757,8.72708795 141.240286,8.46755886 C141.499815,8.20802978 141.920595,8.20802978 142.180124,8.46755886 L143.57808,9.86551525 C143.83761,10.1250443 143.83761,10.5458241 143.57808,10.8053532 Z M140.305168,7.53244114 C140.045639,7.79197022 139.62486,7.79197022 139.36533,7.53244114 L137.967374,6.13448475 C137.707845,5.87495567 137.707845,5.45417589 137.967374,5.19464681 C138.226903,4.93511773 138.647683,4.93511773 138.907212,5.19464681 L140.305168,6.5926032 C140.564697,6.85213228 140.564697,7.27291205 140.305168,7.53244114 Z M47.8053532,38.1946468 C48.0648823,38.4541759 48.0648823,38.8749557 47.8053532,39.1344847 L46.4073968,40.5324411 C46.1478677,40.7919702 45.7270879,40.7919702 45.4675589,40.5324411 C45.2080298,40.2729121 45.2080298,39.8521323 45.4675589,39.5926032 L46.8655153,38.1946468 C47.1250443,37.9351177 47.5458241,37.9351177 47.8053532,38.1946468 Z M44.5324411,41.4675589 C44.7919702,41.7270879 44.7919702,42.1478677 44.5324411,42.4073968 L43.1344847,43.8053532 C42.8749557,44.0648823 42.4541759,44.0648823 42.1946468,43.8053532 C41.9351177,43.5458241 41.9351177,43.1250443 42.1946468,42.8655153 L43.5926032,41.4675589 C43.8521323,41.2080298 44.2729121,41.2080298 44.5324411,41.4675589 Z M47.8053532,43.8053532 C47.5458241,44.0648823 47.1250443,44.0648823 46.8655153,43.8053532 L45.4675589,42.4073968 C45.2080298,42.1478677 45.2080298,41.7270879 45.4675589,41.4675589 C45.7270879,41.2080298 46.1478677,41.2080298 46.4073968,41.4675589 L47.8053532,42.8655153 C48.0648823,43.1250443 48.0648823,43.5458241 47.8053532,43.8053532 Z M44.5324411,40.5324411 C44.2729121,40.7919702 43.8521323,40.7919702 43.5926032,40.5324411 L42.1946468,39.1344847 C41.9351177,38.8749557 41.9351177,38.4541759 42.1946468,38.1946468 C42.4541759,37.9351177 42.8749557,37.9351177 43.1344847,38.1946468 L44.5324411,39.5926032 C44.7919702,39.8521323 44.7919702,40.2729121 44.5324411,40.5324411 Z M8.5,17.5 L11,17.5 L11,18.5 L8.5,18.5 L8.5,21 L7.5,21 L7.5,18.5 L5,18.5 L5,17.5 L7.5,17.5 L7.5,15 L8.5,15 L8.5,17.5 Z M18.7727273,10 C17.115873,10 15.7727273,8.65685425 15.7727273,7 C15.7727273,5.34314575 17.115873,4 18.7727273,4 C20.4295815,4 21.7727273,5.34314575 21.7727273,7 C21.7727273,8.65685425 20.4295815,10 18.7727273,10 Z M18.7727273,9.04 C19.8993882,9.04 20.8127273,8.12666089 20.8127273,7 C20.8127273,5.87333911 19.8993882,4.96 18.7727273,4.96 C17.6460664,4.96 16.7327273,5.87333911 16.7327273,7 C16.7327273,8.12666089 17.6460664,9.04 18.7727273,9.04 Z M103,62 C101.343146,62 100,60.6568542 100,59 C100,57.3431458 101.343146,56 103,56 C104.656854,56 106,57.3431458 106,59 C106,60.6568542 104.656854,62 103,62 Z M103,61.04 C104.126661,61.04 105.04,60.1266609 105.04,59 C105.04,57.8733391 104.126661,56.96 103,56.96 C101.873339,56.96 100.96,57.8733391 100.96,59 C100.96,60.1266609 101.873339,61.04 103,61.04 Z M60,54 L76,54 C76.5522847,54 77,54.4477153 77,55 L77,61 C77,61.5522847 76.5522847,62 76,62 L60,62 C59.4477153,62 59,61.5522847 59,61 L59,55 C59,54.4477153 59.4477153,54 60,54 Z"/>
  <path fill="#FFFFFF" d="M22,15 L23,15 L19,21 L18,21 L22,15 Z M43,15 L44,15 L40,21 L39,21 L43,15 Z M29,15 L30,15 L26,21 L25,21 L29,15 Z M50,15 L51,15 L47,21 L46,21 L50,15 Z M36,15 L37,15 L33,21 L32,21 L36,15 Z M57,15 L58,15 L54,21 L53,21 L57,15 Z M64,15 L65,15 L61,21 L60,21 L64,15 Z"/>
</svg>