<svg xmlns="http://www.w3.org/2000/svg" width="150" height="90" viewBox="0 0 150 90">
  <path fill="#007bff" fill-rule="nonzero" d="M125.805353,63.1946468 C126.064882,63.4541759 126.064882,63.8749557 125.805353,64.1344847 L124.407397,65.5324411 C124.147868,65.7919702 123.727088,65.7919702 123.467559,65.5324411 C123.20803,65.2729121 123.20803,64.8521323 123.467559,64.5926032 L124.865515,63.1946468 C125.125044,62.9351177 125.545824,62.9351177 125.805353,63.1946468 Z M122.532441,66.4675589 C122.79197,66.7270879 122.79197,67.1478677 122.532441,67.4073968 L121.134485,68.8053532 C120.874956,69.0648823 120.454176,69.0648823 120.194647,68.8053532 C119.935118,68.5458241 119.935118,68.1250443 120.194647,67.8655153 L121.592603,66.4675589 C121.852132,66.2080298 122.272912,66.2080298 122.532441,66.4675589 Z M125.805353,68.8053532 C125.545824,69.0648823 125.125044,69.0648823 124.865515,68.8053532 L123.467559,67.4073968 C123.20803,67.1478677 123.20803,66.7270879 123.467559,66.4675589 C123.727088,66.2080298 124.147868,66.2080298 124.407397,66.4675589 L125.805353,67.8655153 C126.064882,68.1250443 126.064882,68.5458241 125.805353,68.8053532 Z M122.532441,65.5324411 C122.272912,65.7919702 121.852132,65.7919702 121.592603,65.5324411 L120.194647,64.1344847 C119.935118,63.8749557 119.935118,63.4541759 120.194647,63.1946468 C120.454176,62.9351177 120.874956,62.9351177 121.134485,63.1946468 L122.532441,64.5926032 C122.79197,64.8521323 122.79197,65.2729121 122.532441,65.5324411 Z M45.9825744,10.3549458 C47.6343269,8.30845628 50.1598528,7 52.9901981,7 C57.9661743,7 62,11.0442404 62,16.0330638 C62,19.1682418 60.4068918,21.9303687 57.9880122,23.5501266 L57.4319932,22.7154976 C59.6441337,21.2341788 60.9989109,18.7496518 60.9989109,16.0330638 C60.9989109,11.5985541 57.413288,8.00367375 52.9901981,8.00367375 C50.518736,8.00367375 48.2396192,9.13363492 46.7366652,11.0159873 L49.9933924,11.0159873 L49.9933924,12.0170764 L45.9825744,12.0170764 L45.9825744,12.0183688 L44.9814853,12.0183688 L44.9814853,12.0170764 L44.9750237,12.0170764 L44.9750237,11.0159873 L44.9814853,11.0159873 L44.9814853,7 L45.9825744,7 L45.9825744,10.3549458 Z M55.9279605,23.5035485 L56.2955134,24.4356301 C55.895058,24.5961339 55.4807736,24.7269456 55.0580133,24.8274253 L55.0316966,24.8328245 L55.0307296,24.8325647 C55.0229244,24.8346242 55.0151191,24.8366837 55.0060878,24.8394529 L55.0051208,24.8391932 C54.9963486,24.8409929 54.9875764,24.8427926 54.9797711,24.8448522 L54.9785451,24.8455619 C54.976352,24.8460118 54.9741589,24.8464617 54.9717068,24.8478811 L54.9707398,24.8476214 C54.9653867,24.8482615 54.9597745,24.849871 54.9531954,24.8512208 C54.9512614,24.8507013 54.9478423,24.8518609 54.9456492,24.8523109 L54.9446822,24.8520511 C54.9356509,24.8548203 54.9278457,24.8568798 54.9190734,24.8586796 C54.9159134,24.8588697 54.9134612,24.8602891 54.9103012,24.8604793 C54.904689,24.8620889 54.8981098,24.8634387 54.8927568,24.8640788 L54.8924977,24.8650483 C54.8893376,24.8652384 54.8861776,24.8654286 54.8837254,24.866848 L54.8586348,24.8715375 L54.8576678,24.8712777 L54.8323181,24.8769367 L54.8060015,24.8823359 C54.8057424,24.8833054 54.8057424,24.8833054 54.8047754,24.8830456 L54.7718795,24.8897947 L54.7709126,24.8895349 L54.7455629,24.8951939 C54.5321285,24.9376083 54.3185739,24.9727168 54.1029651,25 L53.978601,24.003364 C54.6456137,23.9196638 55.3009261,23.7517723 55.9279605,23.5035485 Z M51.9672931,23.9981702 L51.8381652,24.9932089 C51.8190153,24.9911817 51.7991575,24.9879253 51.7790407,24.9856383 L51.7780737,24.9853785 C51.7761397,24.984859 51.7739467,24.9853089 51.7720127,24.9847894 L51.7710457,24.9845296 C51.7662108,24.9832308 51.7620838,24.9831612 51.7569898,24.9828318 L51.751188,24.9812732 C51.750221,24.9810134 51.750221,24.9810134 51.7489949,24.9817231 L51.743193,24.9801645 C51.743193,24.9801645 51.741967,24.9808742 51.741,24.9806144 C51.7380991,24.9798351 51.7351981,24.9790558 51.7320381,24.979246 L51.7291372,24.9784667 C51.7272032,24.9779471 51.7259771,24.9786568 51.7240432,24.9781373 L51.7211422,24.977358 C51.7192083,24.9768384 51.7182413,24.9765787 51.7160482,24.9770286 L51.7083124,24.9749505 C51.7054115,24.9741711 51.7034775,24.9736516 51.7012845,24.9741015 L51.6983835,24.9733222 C51.6964496,24.9728027 51.6945156,24.9722831 51.6932896,24.9729929 L51.6894216,24.9719538 C51.6874877,24.9714342 51.6865207,24.9711745 51.6843276,24.9716244 L51.6804597,24.9705853 C51.6785258,24.9700658 51.6753657,24.9702559 51.6724648,24.9694766 C51.6695639,24.9686973 51.6664038,24.9688875 51.6644699,24.9683679 L51.661569,24.9675886 C51.660602,24.9673289 51.6584089,24.9677788 51.656475,24.9672593 L51.653574,24.96648 C51.6506731,24.9657006 51.64848,24.9661506 51.6455791,24.9653713 C51.6426782,24.964592 51.6395181,24.9647821 51.6366172,24.9640028 L51.6346833,24.9634833 C51.6324902,24.9639332 51.6295893,24.9631539 51.6276553,24.9626344 L51.6257214,24.9621148 C51.6225613,24.962305 51.6196604,24.9615257 51.6186934,24.9612659 L51.6177264,24.9610061 C51.6145664,24.9611963 51.6116655,24.960417 51.6087645,24.9596377 L51.6077976,24.9593779 C51.6046375,24.9595681 51.6027036,24.9590485 51.5998026,24.9582692 L51.5988356,24.9580095 C51.5956756,24.9581996 51.5927747,24.9574203 51.5898737,24.956641 C51.5828458,24.9557921 51.5767848,24.9552029 51.5719499,24.9539041 L51.570983,24.9536443 C51.5678229,24.9538345 51.564922,24.9530552 51.562988,24.9525356 L51.5620211,24.9522759 C51.5559601,24.9516867 51.5498991,24.9510976 51.5440973,24.949539 L51.5431303,24.9492792 C51.5402294,24.9484999 51.5370693,24.94869 51.5351354,24.9481705 C51.5252065,24.9465423 51.5162446,24.9451738 51.5072827,24.9438054 L51.5063157,24.9435456 C51.4973538,24.9421771 51.4883919,24.9408087 51.4796891,24.9384708 L51.478463,24.9391805 C51.4390066,24.9316981 51.3992911,24.9251852 51.3598347,24.9177028 L51.3588677,24.9174431 C51.3290811,24.9125584 51.2976196,24.9061847 51.2671251,24.9000708 C51.2574553,24.8974731 51.2484934,24.8961046 51.2397906,24.8937667 C51.2298617,24.8921385 51.2211589,24.8898005 51.21123,24.8881723 C51.2022681,24.8868039 51.1935653,24.8844659 51.1836364,24.8828377 L51.1749336,24.8804998 C51.1679057,24.8796509 51.1630708,24.878352 51.1572689,24.8767934 L51.156302,24.8765336 C51.1531419,24.8767238 51.150241,24.8759445 51.1473401,24.8751652 C51.1376703,24.8725675 51.1287084,24.871199 51.1200056,24.8688611 L51.1197465,24.8698306 C51.1100767,24.8672329 51.1013739,24.8648949 51.091445,24.8632667 L51.0827422,24.8609288 C51.0766812,24.8603396 51.0708794,24.858781 51.0650775,24.8572224 L51.0631436,24.8567029 C51.0602426,24.8559236 51.0580496,24.8563735 51.0551486,24.8555942 L51.0541817,24.8553344 C51.0483798,24.8537758 51.0435449,24.8524769 51.0374839,24.8518878 L51.0268472,24.8490303 C51.0210453,24.8474717 51.0152434,24.8459131 51.0082155,24.8450642 L50.9995127,24.8427262 C50.9966118,24.8419469 50.9937108,24.8411676 50.9905508,24.8413578 L50.9634754,24.8340842 C50.9625084,24.8338245 50.9625084,24.8338245 50.9612824,24.8345342 L50.9361409,24.8277801 C50.935174,24.8275204 50.9349149,24.8284899 50.9339479,24.8282301 L50.9068725,24.8209565 C50.9010706,24.8193979 50.8950097,24.8188088 50.8892078,24.8172501 L50.8708352,24.8123145 C50.8679343,24.8115352 50.8647743,24.8117254 50.8618733,24.8109461 L50.8164254,24.7987369 C50.8154584,24.7984771 50.8151993,24.7994466 50.8142323,24.7991868 L50.7591146,24.7843799 C50.7571806,24.7838604 50.7542797,24.7830811 50.7520866,24.783531 L50.5673939,24.733915 C50.5664269,24.7336552 50.5644929,24.7331357 50.5637851,24.7319064 L50.5086673,24.7170995 C50.5047994,24.7160604 50.5018985,24.7152811 50.4992566,24.7135324 L50.4605775,24.7031416 C50.4547757,24.7015829 50.4482659,24.6987951 50.442464,24.6972365 L50.4192566,24.691002 C50.4175817,24.689513 50.4156478,24.6889934 50.4137138,24.6884739 L50.3856715,24.6809406 C50.3839966,24.6794515 50.3820626,24.678932 50.3801287,24.6784125 L50.364657,24.6742561 C50.3513785,24.6696499 50.3378408,24.6660131 50.3235952,24.6611471 C50.1904808,24.6201917 50.0584028,24.5753584 49.92781,24.528846 L49.9210411,24.5270276 C49.9193663,24.5255386 49.9174323,24.525019 49.9145314,24.5242397 C49.9060877,24.5209323 49.896677,24.5173651 49.8879742,24.5150272 L49.8870072,24.5147674 C49.8853324,24.5132784 49.8833984,24.5127589 49.8824314,24.5124991 L49.8804975,24.5119796 C49.8785635,24.51146 49.8778556,24.5102308 49.8759217,24.5097112 L49.8681859,24.5076331 C49.8672189,24.5073733 49.866511,24.5061441 49.865544,24.5058843 L49.8578082,24.5038061 C49.8571003,24.5025769 49.8551664,24.5020574 49.8541994,24.5017976 L49.8464636,24.4997194 C49.8457557,24.4984902 49.8457557,24.4984902 49.8447887,24.4982304 L49.8399538,24.4969316 C49.8389868,24.4966718 49.8389868,24.4966718 49.838279,24.4954426 L49.8305431,24.4933644 C49.8286092,24.4928449 49.8269343,24.4913558 49.8250004,24.4908363 L49.8230664,24.4903168 C49.8211325,24.4897972 49.8191985,24.4892777 49.8165567,24.4875289 L49.8155897,24.4872691 C49.7591256,24.4658661 49.7026616,24.4444631 49.6476827,24.4213808 L50.0171393,23.4888261 C50.3082827,23.605485 50.6118257,23.7067717 50.9173907,23.7888589 C51.2626018,23.8815968 51.6157061,23.9525563 51.9672931,23.9981702 Z M46.7974733,21.1255391 C47.2245835,21.6486367 47.7155378,22.1151107 48.2569374,22.5130492 L47.6651503,23.3235321 C47.5111653,23.2094299 47.3620847,23.0924888 47.2164925,22.9702504 C47.2097931,22.9642944 47.2021267,22.9580785 47.1951682,22.953092 L47.1760369,22.9354836 L47.17507,22.9352238 L47.1556796,22.9185849 L47.1547126,22.9183251 C47.1530377,22.9168361 47.1503959,22.9150873 47.1489802,22.9126288 L47.1480132,22.912369 C47.1436965,22.9091312 47.1396389,22.904924 47.1343552,22.9014264 L47.1346143,22.9004569 C47.1319725,22.8987081 47.1302977,22.8972191 47.1276558,22.8954703 L47.1269479,22.8942411 C47.1209564,22.8895143 47.115224,22.883818 47.1085245,22.8778619 C47.1075576,22.8776022 47.1075576,22.8776022 47.1078167,22.8766327 C47.1051748,22.8748839 47.1035,22.8733949 47.1018251,22.8719059 L47.1008581,22.8716461 C47.0965415,22.8684083 47.0912578,22.8649107 47.0872002,22.8607035 C47.0872002,22.8607035 47.0862332,22.8604437 47.0864923,22.8594742 C47.0848175,22.8579852 47.0841096,22.856756 47.0814678,22.8550072 L47.0805008,22.8547474 C47.0764432,22.8505401 47.0721265,22.8473023 47.0680689,22.8430951 C47.0671019,22.8428353 47.0671019,22.8428353 47.0663941,22.8416061 L47.0613695,22.837139 C47.0604025,22.8368792 47.0604025,22.8368792 47.0596947,22.83565 L47.0546701,22.831183 L47.0537031,22.8309232 C47.0510613,22.8291744 47.0506125,22.8269757 47.0479707,22.8252269 C47.0479707,22.8252269 47.0470037,22.8249671 47.0472628,22.8239977 L47.0422382,22.8195306 C47.0412713,22.8192708 47.0403043,22.8190111 47.0405634,22.8180416 C47.0388885,22.8165526 47.0362467,22.8148038 47.0345718,22.8133148 L47.0336049,22.813055 C47.0321891,22.8105965 47.0295473,22.8088477 47.0276133,22.8083282 C47.0266463,22.8080684 47.0266463,22.8080684 47.0269054,22.807099 C47.0242636,22.8053502 47.0225887,22.8038612 47.0209139,22.8023721 C47.0199469,22.8021124 47.020206,22.8011429 47.019239,22.8008831 L47.0151815,22.7966759 C47.0151815,22.7966759 47.0144736,22.7954466 47.0135066,22.7951868 L47.008482,22.7907198 C47.0075151,22.79046 47.0075151,22.79046 47.0077742,22.7894906 C47.0051323,22.7877418 47.0034575,22.7862528 47.0017826,22.7847637 C47.0010747,22.7835345 47.0001078,22.7832747 46.9991408,22.783015 C46.9974659,22.7815259 46.9967581,22.7802967 46.9950832,22.7788077 C46.9941162,22.7785479 46.9934083,22.7773187 46.9934083,22.7773187 L46.9883838,22.7728516 C46.9874168,22.7725919 46.9876759,22.7716224 46.9867089,22.7713626 C46.9850341,22.7698736 46.9833592,22.7683846 46.9809765,22.7656663 L46.9802686,22.7644371 C46.9785938,22.7629481 46.9766598,22.7624285 46.9759519,22.7611993 C46.975244,22.75997 46.9742771,22.7597103 46.9735692,22.758481 C46.9716352,22.7579615 46.9709274,22.7567322 46.9692525,22.7552432 C46.9685446,22.754014 46.9675776,22.7537542 46.9675776,22.7537542 C46.9651949,22.751036 46.9635201,22.7495469 46.9618452,22.7480579 L46.9599112,22.7475384 L46.9548867,22.7430713 C46.9539197,22.7428116 46.9541788,22.7418421 46.9532118,22.7415823 C46.951537,22.7400933 46.9498621,22.7386043 46.9491542,22.7373751 C46.9481873,22.7371153 46.9472203,22.7368555 46.9465124,22.7356263 L46.9424548,22.731419 C46.9414878,22.7311592 46.9417469,22.7301898 46.9417469,22.7301898 C46.9391051,22.728441 46.9374303,22.726952 46.9357554,22.7254629 C46.9350475,22.7242337 46.9340805,22.7239739 46.9333727,22.7227447 C46.9324057,22.7224849 46.9307308,22.7209959 46.929056,22.7195069 C46.929056,22.7195069 46.9273811,22.7180179 46.9276402,22.7170484 C46.9257063,22.7165289 46.9240314,22.7150399 46.9233235,22.7138106 C46.9223566,22.7135508 46.9216487,22.7123216 46.9206817,22.7120618 C46.9190069,22.7105728 46.9175911,22.7081143 46.9149493,22.7063655 C46.9149493,22.7063655 46.9142414,22.7051363 46.9132744,22.7048765 C46.9115996,22.7033875 46.9108917,22.7021583 46.9101838,22.700929 C46.9092168,22.7006692 46.908509,22.69944 46.907542,22.6991802 C46.9068341,22.697951 46.9051592,22.696462 46.9044514,22.6952327 C46.9034844,22.694973 46.9027765,22.6937437 46.9018095,22.6934839 C46.9001347,22.6919949 46.8974928,22.6902461 46.8960771,22.6877877 C46.8951101,22.6875279 46.8941431,22.6872681 46.8934353,22.6860389 C46.8924683,22.6857791 46.8907934,22.6842901 46.8898265,22.6840303 C46.8891186,22.6828011 46.8881516,22.6825413 46.8874437,22.6813121 C46.8857689,22.679823 46.8848019,22.6795633 46.884094,22.678334 C46.8833861,22.6771048 46.8824192,22.676845 46.8807443,22.675356 C46.8800364,22.6741268 46.8783616,22.6726377 46.8766867,22.6711487 C46.8766867,22.6711487 46.8759788,22.6699195 46.8750119,22.6696597 C46.873337,22.6681707 46.8716621,22.6666817 46.8709543,22.6654524 C46.8702464,22.6642232 46.8683124,22.6637037 46.8676046,22.6624744 C46.8666376,22.6622146 46.8659297,22.6609854 46.8642549,22.6594964 C46.863547,22.6582671 46.86258,22.6580074 46.8618721,22.6567781 C46.8609051,22.6565184 46.8592303,22.6550293 46.8585224,22.6538001 C46.8575554,22.6535403 46.8568476,22.6523111 46.8558806,22.6520513 C46.8544648,22.6495928 46.85279,22.6481038 46.8501481,22.646355 C46.8494403,22.6451258 46.8484733,22.644866 46.8477654,22.6436368 C46.8467984,22.643377 46.8460906,22.6421478 46.8444157,22.6406587 C46.8434487,22.640399 46.8427408,22.6391697 46.842033,22.6379405 C46.841066,22.6376807 46.8403581,22.6364515 46.8396502,22.6352222 C46.8386833,22.6349625 46.8379754,22.6337332 46.8370084,22.6334734 C46.8346257,22.6307552 46.8329508,22.6292662 46.831276,22.6277772 C46.830309,22.6275174 46.8296011,22.6262881 46.8288932,22.6250589 C46.8279263,22.6247991 46.8259923,22.6242796 46.8252844,22.6230503 C46.8243174,22.6227906 46.8236096,22.6215613 46.8219347,22.6200723 C46.8209677,22.6198125 46.8202599,22.6185833 46.819552,22.6173541 C46.818585,22.6170943 46.8169101,22.6156053 46.8162023,22.614376 C46.8152353,22.6141163 46.8145274,22.612887 46.8128526,22.611398 C46.8111777,22.609909 46.8104698,22.6086797 46.8085359,22.6081602 L46.8064122,22.6044725 C46.8054453,22.6042127 46.8037704,22.6027237 46.8030625,22.6014944 C46.8020956,22.6012347 46.8013877,22.6000054 46.8006798,22.5987762 C46.7987458,22.5982566 46.798038,22.5970274 46.797071,22.5967676 C46.7963631,22.5955384 46.7956552,22.5943091 46.7939804,22.5928201 C46.7930134,22.5925604 46.7913385,22.5910713 46.7896637,22.5895823 C46.7889558,22.5883531 46.787281,22.5868641 46.7865731,22.5856348 C46.7846391,22.5851153 46.7839313,22.583886 46.7832234,22.5826568 C46.7822564,22.582397 46.7815485,22.5811678 46.7808406,22.5799385 C46.7789067,22.579419 46.7781988,22.5781898 46.7774909,22.5769605 C46.776524,22.5767007 46.7758161,22.5754715 46.7741412,22.5739825 C46.7731742,22.5737227 46.7734333,22.5727532 46.7727255,22.571524 C46.7707915,22.5710045 46.7691167,22.5695154 46.7684088,22.5682862 C46.7667339,22.5667972 46.7650591,22.5653082 46.7640921,22.5650484 C46.7633842,22.5638192 46.7624172,22.5635594 46.7617094,22.5623301 C46.7600345,22.5608411 46.7590675,22.5605814 46.7583597,22.5593521 C46.7576518,22.5581229 46.7566848,22.5578631 46.7550099,22.5563741 C46.754043,22.5561143 46.7533351,22.5548851 46.7526272,22.5536558 C46.7516602,22.5533961 46.7499854,22.551907 46.7492775,22.5506778 C46.7476027,22.5491888 46.7449608,22.54744 46.7435451,22.5449815 C46.7425781,22.5447217 46.7418702,22.5434925 46.7418702,22.5434925 C46.7401954,22.5420035 46.7394875,22.5407742 46.7385205,22.5405145 L46.7371047,22.538056 C46.7354299,22.536567 46.734722,22.5353377 46.7327881,22.5348182 C46.7330472,22.5338487 46.7320802,22.5335889 46.7313723,22.5323597 C46.7287305,22.5306109 46.7263477,22.5278927 46.7246729,22.5264036 C46.723965,22.5251744 46.722998,22.5249146 46.722998,22.5249146 C46.7213232,22.5234256 46.7206153,22.5221964 46.7189404,22.5207074 C46.7179735,22.5204476 46.7172656,22.5192183 46.7172656,22.5192183 C46.7155907,22.5177293 46.7148829,22.5165001 46.713208,22.5150111 C46.712241,22.5147513 46.7125001,22.5137818 46.7115332,22.513522 C46.7074756,22.5093148 46.704385,22.5053673 46.6998092,22.503099 C46.6991013,22.5018697 46.6981343,22.5016099 46.6983934,22.5006405 C46.6967186,22.4991514 46.6957516,22.4988917 46.6940767,22.4974027 C46.6933689,22.4961734 46.6933689,22.4961734 46.6924019,22.4959136 C46.6883443,22.4917064 46.6842867,22.4874991 46.6792621,22.4830321 C46.6795212,22.4820626 46.6785543,22.4818028 46.6785543,22.4818028 C46.6768794,22.4803138 46.6761715,22.4790846 46.6744967,22.4775955 C46.6735297,22.4773358 46.6737888,22.4763663 46.6728218,22.4761065 C46.671147,22.4746175 46.6704391,22.4733883 46.6697312,22.472159 C46.6697312,22.472159 46.6687642,22.4718993 46.6690233,22.4709298 C46.6656736,22.4679518 46.6623239,22.4649737 46.6599412,22.4622555 C46.6582663,22.4607665 46.6575585,22.4595372 46.6556245,22.4590177 L46.6542087,22.4565592 C46.6522748,22.4560396 46.651826,22.4538409 46.6498921,22.4533214 C46.6501512,22.4523519 46.6491842,22.4520921 46.6491842,22.4520921 C46.6451266,22.4478849 46.6398429,22.4443873 46.6357853,22.44018 C46.6360444,22.4392106 46.6360444,22.4392106 46.6350775,22.4389508 C46.6343696,22.4377215 46.6326947,22.4362325 46.6310199,22.4347435 L46.630312,22.4335143 C46.6252874,22.4290472 46.6212298,22.4248399 46.6164644,22.4194034 L46.6154974,22.4191437 C46.6147895,22.4179144 46.6131147,22.4164254 46.6114398,22.4149364 L46.6107319,22.4137071 C46.6090571,22.4122181 46.6073822,22.4107291 46.6066744,22.4094999 L46.6057074,22.4092401 C46.6016498,22.4050328 46.5978513,22.3998561 46.5928267,22.395389 C46.5928267,22.395389 46.5918598,22.3951293 46.5921189,22.3941598 C46.590444,22.3926708 46.5897361,22.3914415 46.5880613,22.3899525 L46.5870943,22.3896928 C46.5820697,22.3852257 46.5780122,22.3810184 46.5729876,22.3765514 C46.5729876,22.3765514 46.5720206,22.3762916 46.5722797,22.3753222 C46.5706049,22.3738331 46.569897,22.3726039 46.5682221,22.3711149 C46.5617818,22.3641893 46.5560494,22.3584931 46.549609,22.3515675 L46.5486421,22.3513078 C46.5422018,22.3443822 46.5367284,22.3377165 46.530996,22.3320202 C46.352911,22.1490989 46.1832188,21.9580415 46.0223683,21.7610467 L46.7974733,21.1255391 Z M45.1122171,17.4921878 C45.2353664,18.155992 45.442111,18.8017292 45.7258902,19.4151681 L44.8188424,19.8385869 C44.8191015,19.8376174 44.8181345,19.8373577 44.8183936,19.8363882 C44.8176857,19.8351589 44.8169779,19.8339297 44.815303,19.8324407 C44.8155621,19.8314712 44.8148542,19.830242 44.8148542,19.830242 C44.8134385,19.8277835 44.8129897,19.8255848 44.8113148,19.8240957 C44.811574,19.8231263 44.811574,19.8231263 44.810607,19.8228665 C44.8101582,19.8206678 44.8087424,19.8182093 44.8075858,19.8147813 C44.8075858,19.8147813 44.8068779,19.8135521 44.807137,19.8125826 C44.8054622,19.8110936 44.8050134,19.8088949 44.8043055,19.8076656 L44.8028898,19.8052071 C44.802441,19.8030084 44.8017331,19.8017792 44.8003173,19.7993207 C44.8005764,19.7983512 44.7996095,19.7980915 44.7998686,19.797122 C44.7984528,19.7946635 44.798004,19.7924648 44.7965883,19.7900063 C44.7965883,19.7900063 44.7968474,19.7890368 44.7958804,19.788777 C44.7954316,19.7865783 44.7947238,19.7853491 44.7940159,19.7841198 C44.793308,19.7828906 44.792341,19.7826308 44.7926001,19.7816613 C44.7921514,19.7794626 44.7904765,19.7779736 44.7900277,19.7757749 L44.788612,19.7733164 C44.7881632,19.7711177 44.7867474,19.7686592 44.7853317,19.7662007 C44.7853317,19.7662007 44.7855908,19.7652312 44.7846238,19.7649715 C44.784175,19.7627727 44.7834672,19.7615435 44.7820514,19.759085 C44.7823105,19.7581155 44.7816026,19.7568863 44.7806356,19.7566265 C44.7801869,19.7544278 44.779479,19.7531986 44.7790302,19.7509998 C44.7780632,19.7507401 44.7783223,19.7497706 44.7776145,19.7485414 C44.7771657,19.7463426 44.7757499,19.7438841 44.7743342,19.7414257 L44.7736263,19.7401964 C44.7731775,19.7379977 44.7715027,19.7365087 44.7707948,19.7352794 L44.769379,19.7328209 C44.7689303,19.7306222 44.7691894,19.7296528 44.7687406,19.727454 C44.7677736,19.7271943 44.7670657,19.725965 44.7673248,19.7249955 C44.7659091,19.7225371 44.7652012,19.7213078 44.7647524,19.7191091 L44.7640446,19.7178798 C44.7626288,19.7154214 44.761213,19.7129629 44.7607643,19.7107642 C44.7600564,19.7095349 44.7593485,19.7083057 44.7596076,19.7073362 C44.7588997,19.7061069 44.7581919,19.7048777 44.7577431,19.702679 C44.7570352,19.7014497 44.7560682,19.70119 44.7563273,19.7002205 C44.7558786,19.6980218 44.7542037,19.6965328 44.7534958,19.6953035 C44.7527879,19.6940743 44.753047,19.6931048 44.753047,19.6931048 C44.7516313,19.6906463 44.7504746,19.6872183 44.7487998,19.6857293 L44.7480919,19.6845001 C44.7476431,19.6823014 44.7469353,19.6810721 44.7455195,19.6786136 C44.7457786,19.6776442 44.7448116,19.6773844 44.7450707,19.6764149 C44.743655,19.6739564 44.7429471,19.6727272 44.7424983,19.6705285 L44.7420495,19.6683297 C44.7416008,19.666131 44.740185,19.6636725 44.7397362,19.6614738 C44.7387693,19.6612141 44.7380614,19.6599848 44.7383205,19.6590153 C44.7376126,19.6577861 44.7371638,19.6555874 44.735489,19.6540984 C44.7357481,19.6531289 44.7350402,19.6518996 44.7343323,19.6506704 L44.7322087,19.6469827 C44.7324678,19.6460132 44.7317599,19.6447839 44.731052,19.6435547 C44.7306033,19.641356 44.7298954,19.6401267 44.7284796,19.6376682 C44.7287387,19.6366988 44.7277718,19.636439 44.7270639,19.6352098 C44.726356,19.6339805 44.7259072,19.6317818 44.7244915,19.6293233 L44.7230757,19.6268648 C44.7223678,19.6256356 44.7219191,19.6234369 44.7212112,19.6222076 C44.7214703,19.6212381 44.7207624,19.6200089 44.7200545,19.6187796 C44.7193467,19.6175504 44.7186388,19.6163212 44.71819,19.6141224 C44.717223,19.6138627 44.7174821,19.6128932 44.7167743,19.611664 C44.7163255,19.6094652 44.7158767,19.6072665 44.7144609,19.604808 C44.7147201,19.6038386 44.7140122,19.6026093 44.7130452,19.6023495 C44.7125964,19.6001508 44.7118885,19.5989216 44.7111807,19.5976923 C44.7114398,19.5967229 44.7107319,19.5954936 44.710024,19.5942644 C44.7093161,19.5930351 44.7088674,19.5908364 44.7081595,19.5896072 C44.7074516,19.5883779 44.7074516,19.5883779 44.7064846,19.5881181 C44.7060359,19.5859194 44.7046201,19.5834609 44.7032043,19.5810025 C44.7034634,19.580033 44.7027556,19.5788037 44.7030147,19.5778343 L44.7001832,19.5729173 C44.7004423,19.5719478 44.6997344,19.5707186 44.6987674,19.5704588 C44.6983186,19.5682601 44.6976108,19.5670308 44.6969029,19.5658016 C44.696195,19.5645723 44.6964541,19.5636029 44.6957462,19.5623736 C44.6952975,19.5601749 44.6938817,19.5577164 44.6934329,19.5555177 C44.692725,19.5542885 44.6917581,19.5540287 44.6920172,19.5530592 C44.6915684,19.5508605 44.6908605,19.5496312 44.6901526,19.548402 L44.688996,19.544974 C44.6882881,19.5437448 44.6888063,19.5418058 44.6880984,19.5405766 L44.6857157,19.5378583 C44.6850078,19.5366291 44.684559,19.5344304 44.6838512,19.5332011 C44.6831433,19.5319719 44.6824354,19.5307426 44.6826945,19.5297732 C44.6810197,19.5282842 44.6805709,19.5260854 44.6801221,19.5238867 C44.6794142,19.5226575 44.6787064,19.5214282 44.6789655,19.5204588 L44.6768418,19.516771 C44.6763931,19.5145723 44.6754261,19.5143125 44.6756852,19.5133431 L44.6728537,19.5084261 C44.6731128,19.5074566 44.6724049,19.5062274 44.672664,19.5052579 C44.6712482,19.5027994 44.6707995,19.5006007 44.6693837,19.4981422 L44.667968,19.4956837 C44.6672601,19.4944545 44.6668113,19.4922557 44.6661034,19.4910265 L44.6646877,19.488568 C44.6639798,19.4873388 44.663531,19.48514 44.6628231,19.4839108 L44.6623744,19.4817121 C44.6609586,19.4792536 44.6605098,19.4770549 44.6590941,19.4745964 C44.6593532,19.4736269 44.6586453,19.4723977 44.6586453,19.4723977 C44.6581965,19.470199 44.6574887,19.4689697 44.6560729,19.4665112 C44.656332,19.4655417 44.6556241,19.4643125 44.6546571,19.4640527 C44.6542084,19.461854 44.6535005,19.4606248 44.6527926,19.4593955 C44.6530517,19.458426 44.6523438,19.4571968 44.651636,19.4559676 C44.6511872,19.4537688 44.6507384,19.4515701 44.6490636,19.4500811 C44.6483557,19.4488519 44.6486148,19.4478824 44.6479069,19.4466531 C44.6474581,19.4444544 44.6467503,19.4432252 44.6460424,19.4419959 C44.6450754,19.4417362 44.6453345,19.4407667 44.6446266,19.4395374 C44.6441778,19.4373387 44.64347,19.4361095 44.6427621,19.4348802 C44.6420542,19.433651 44.6423133,19.4326815 44.6416054,19.4314523 C44.6408976,19.430223 44.6394818,19.4277645 44.639033,19.4255658 L44.6383252,19.4243366 C44.6369094,19.4218781 44.6364606,19.4196794 44.6360118,19.4174807 C44.6362709,19.4165112 44.6355631,19.4152819 44.6358222,19.4143125 C44.6341473,19.4128235 44.6336985,19.4106247 44.6329907,19.4093955 C44.6332498,19.408426 44.6325419,19.4071968 44.6315749,19.406937 C44.6311261,19.4047383 44.6306774,19.4025396 44.6299695,19.4013103 C44.6292616,19.4000811 44.6292616,19.4000811 44.6295207,19.3991116 L44.6259813,19.3929654 C44.6252734,19.3917361 44.6255325,19.3907667 44.6245656,19.3905069 C44.6241168,19.3883082 44.6234089,19.3870789 44.6229601,19.3848802 L44.6215444,19.3824217 C44.6210956,19.380223 44.6203877,19.3789938 44.619939,19.376795 L44.6185232,19.3743365 C44.6180744,19.3721378 44.6166587,19.3696793 44.6152429,19.3672209 C44.615502,19.3662514 44.615502,19.3662514 44.6147941,19.3650221 C44.6143454,19.3628234 44.6136375,19.3615942 44.6131887,19.3593955 C44.6122217,19.3591357 44.611773,19.356937 44.611773,19.356937 C44.6113242,19.3547382 44.6106163,19.353509 44.6111345,19.3515701 C44.6101675,19.3513103 44.6094597,19.350081 44.6097188,19.3491116 C44.608303,19.3466531 44.6078542,19.3444544 44.6061794,19.3429653 C44.6064385,19.3419959 44.6054715,19.3417361 44.6057306,19.3407666 C44.6050227,19.3395374 44.6045739,19.3373387 44.6031582,19.3348802 C44.6034173,19.3339107 44.6024503,19.3336509 44.6027094,19.3326815 L44.5998779,19.3277645 C44.600137,19.326795 44.5994291,19.3255658 44.5987213,19.3243365 C44.5980134,19.3231073 44.5975646,19.3209086 44.5971158,19.3187098 C44.5961488,19.3184501 44.5964079,19.3174806 44.5957001,19.3162513 C44.5952513,19.3140526 44.5938355,19.3115941 44.5933868,19.3093954 C44.5924198,19.3091356 44.5926789,19.3081662 44.591971,19.3069369 C44.5915222,19.3047382 44.5908144,19.303509 44.5901065,19.3022797 C44.5903656,19.3013102 44.5896577,19.300081 44.5889498,19.2988518 C44.588242,19.2976225 44.5875341,19.2963933 44.5870853,19.2941946 C44.5861183,19.2939348 44.5863774,19.2929653 44.5866365,19.2919958 C44.5852208,19.2895373 44.584772,19.2873386 44.5843232,19.2851399 L44.5829075,19.2826814 C44.5824587,19.2804827 44.5817508,19.2792535 44.581302,19.2770547 L44.5798863,19.2745962 C44.5791784,19.273367 44.5787296,19.2711683 44.5782809,19.2689696 C44.5773139,19.2687098 44.577573,19.2677403 44.5768651,19.2665111 C44.5764163,19.2643124 44.5750006,19.2618539 44.5745518,19.2596552 L44.573136,19.2571967 C44.5724282,19.2559674 44.5719794,19.2537687 44.5715306,19.25157 C44.5705636,19.2513102 44.5708227,19.2503407 44.5701149,19.2491115 C44.569407,19.2478822 44.5686991,19.246653 44.5682503,19.2444543 C44.5672833,19.2441945 44.5675424,19.243225 44.5668346,19.2419958 C44.5663858,19.2397971 44.56497,19.2373386 44.5645213,19.2351399 L44.5635543,19.2348801 C44.5633646,19.2317119 44.5619489,19.2292534 44.5615001,19.2270547 L44.5600843,19.2245962 C44.5593765,19.223367 44.5598947,19.221428 44.5594459,19.2192293 C44.5584789,19.2189695 44.558738,19.2180001 44.5580301,19.2167708 C44.5575813,19.2145721 44.5571326,19.2123734 44.5557168,19.2099149 C44.5545602,19.2064869 44.5531444,19.2040284 44.5526956,19.2018297 C44.5519878,19.2006005 44.5519878,19.2006005 44.5522469,19.199631 C44.550572,19.198142 44.5498641,19.1969127 44.5494154,19.194714 C44.5487075,19.1934848 44.5487075,19.1934848 44.5489666,19.1925153 C44.5475508,19.1900568 44.547102,19.1878581 44.5463942,19.1866289 C44.5456863,19.1853996 44.5456863,19.1853996 44.5459454,19.1844301 C44.5445296,19.1819716 44.5431139,19.1795132 44.5429242,19.176345 C44.5429242,19.176345 44.5419572,19.1760852 44.5422163,19.1751157 C44.5415085,19.1738865 44.5400927,19.171428 44.5396439,19.1692293 C44.539903,19.1682598 44.5391952,19.1670305 44.5391952,19.1670305 C44.5377794,19.1645721 44.5373306,19.1623733 44.5368818,19.1601746 L44.536174,19.1589454 C44.5347582,19.1564869 44.5345685,19.1533187 44.5338607,19.1520895 C44.5324449,19.149631 44.5322552,19.1464628 44.5308395,19.1440043 L44.5301316,19.142775 C44.5296828,19.1405763 44.5292341,19.1383776 44.5278183,19.1359191 L44.5271104,19.1346899 C44.525505,19.1290632 44.5236405,19.124406 44.522035,19.1187793 L44.5206193,19.1163208 C44.5199114,19.1150916 44.5194626,19.1128928 44.5190139,19.1106941 L44.5175981,19.1082356 C44.5171493,19.1060369 44.5157336,19.1035784 44.5150257,19.1023492 C44.513869,19.0989212 44.5124533,19.0964627 44.5122636,19.0932945 C44.5122636,19.0932945 44.5112966,19.0930348 44.5115557,19.0920653 C44.511107,19.0898666 44.5094321,19.0883776 44.5089833,19.0861788 L44.5095015,19.0842399 C44.5080858,19.0817814 44.507637,19.0795827 44.5071882,19.077384 L44.5064803,19.0761547 C44.5060316,19.073956 44.5048749,19.070528 44.5034592,19.0680696 L44.5037183,19.0671001 C44.5023025,19.0646416 44.5018537,19.0624429 44.500438,19.0599844 C44.500438,19.0599844 44.5006971,19.0590149 44.4997301,19.0587551 C44.4992813,19.0565564 44.4985735,19.0553272 44.4971577,19.0528687 L44.4976759,19.0509297 C44.4948444,19.0460128 44.493239,19.0403861 44.4916335,19.0347594 C44.4916335,19.0347594 44.4906666,19.0344996 44.4909257,19.0335302 C44.4904769,19.0313314 44.4890611,19.0288729 44.4886124,19.0266742 C44.4886124,19.0266742 44.4876454,19.0264145 44.4879045,19.025445 C44.486299,19.0198183 44.4854015,19.0154209 44.4828291,19.0095344 L44.4830882,19.0085649 C44.4814133,19.0070759 44.4809646,19.0048772 44.4805158,19.0026785 L44.4798079,19.0014492 C44.4782025,18.9958226 44.4756301,18.9899361 44.4740246,18.9843094 C44.4726089,18.9818509 44.4724192,18.9786827 44.4710035,18.9762243 L44.4712626,18.9752548 C44.4682414,18.9671696 44.4649611,18.9600539 44.462199,18.9509993 L44.461232,18.9507395 C44.4610424,18.9475713 44.4605936,18.9453726 44.4601448,18.9431739 L44.4604039,18.9422044 C44.4575724,18.9372874 44.455967,18.9316607 44.4543615,18.9260341 C44.4546206,18.9250646 44.4536537,18.9248048 44.4536537,18.9248048 C44.4532049,18.9226061 44.4517891,18.9201476 44.4515995,18.9169794 L44.4506325,18.9167196 L44.4455571,18.9008091 L44.4445901,18.9005493 C44.4444004,18.8973811 44.4429847,18.8949226 44.4425359,18.8927239 C44.442795,18.8917544 44.442795,18.8917544 44.441828,18.8914947 C44.4388069,18.8834095 44.4370117,18.8746146 44.4349575,18.8667892 L44.4339906,18.8665294 C44.4319364,18.858704 44.4291743,18.8496494 44.4261531,18.8415642 C44.423391,18.8325096 44.4203698,18.8244244 44.4173487,18.8163392 C44.4159329,18.8138808 44.4157432,18.8107126 44.4145866,18.8072846 C44.4125324,18.7994592 44.4097703,18.7904046 44.4067491,18.7823194 C44.2918797,18.4210335 44.1977843,18.0518202 44.1280715,17.6766883 L45.1122171,17.4921878 Z M44.4407111,13.1835308 L45.3909862,13.4980411 C45.3413455,13.6488802 45.2955726,13.8007583 45.2543756,13.9549047 C45.1204204,14.456123 45.0353323,14.9683908 44.9980935,15.4800048 L44,15.4103402 C44.0194153,15.1360435 44.0505038,14.8607265 44.0961663,14.5851683 C44.0974618,14.5803209 44.0977904,14.5752138 44.0988268,14.5713359 C44.0991553,14.5662287 44.1001917,14.5623508 44.1005202,14.5572437 L44.102593,14.5494879 C44.1021442,14.5472892 44.1026624,14.5453502 44.1034397,14.5424418 C44.1039579,14.5405028 44.1037683,14.5373347 44.1042865,14.5353957 C44.1090891,14.5096698 44.1126657,14.4846537 44.1177275,14.4579583 C44.1185048,14.4550499 44.119023,14.4531109 44.1185742,14.4509122 L44.1203879,14.4441259 C44.1201983,14.4409577 44.1204574,14.4399882 44.1212347,14.4370798 L44.1230484,14.4302935 C44.1230484,14.4302935 44.1233075,14.429324 44.1223405,14.4290642 L44.1241542,14.4222779 C44.1246724,14.420339 44.1244827,14.4171708 44.1247418,14.4162013 L44.1268146,14.4084455 C44.1273328,14.4065066 44.1268841,14.4043078 44.1274023,14.4023689 L44.1294751,14.3946131 C44.1292854,14.3914449 44.1295445,14.3904754 44.1303218,14.387567 C44.1310991,14.3846586 44.1316173,14.3827196 44.1314276,14.3795514 L44.1414817,14.3302984 C44.141033,14.3280997 44.1415512,14.3261607 44.1420694,14.3242218 L44.1441422,14.316466 C44.1436934,14.3142673 44.1442116,14.3123283 44.1447298,14.3103894 L44.1509482,14.287122 C44.1502404,14.2858928 44.1504995,14.2849233 44.1510177,14.2829843 L44.1533496,14.2742591 C44.1538678,14.2723201 44.153419,14.2701214 44.1539372,14.2681824 L44.1562691,14.2594572 C44.1565282,14.2584877 44.1560794,14.256289 44.1565976,14.25435 L44.1589295,14.2456248 C44.1608127,14.2347008 44.1629549,14.2228073 44.1663232,14.2102041 C44.1658744,14.2080054 44.1663926,14.2060665 44.1669108,14.2041275 L44.1692427,14.1954023 C44.1695019,14.1944328 44.1690531,14.1922341 44.1695713,14.1902951 L44.1734578,14.175753 C44.1734578,14.175753 44.1737169,14.1747835 44.173009,14.1735543 L44.1763773,14.1609511 C44.1768955,14.1590122 44.1761877,14.1577829 44.1767059,14.155844 L44.1811106,14.1393629 C44.1813697,14.1383934 44.18118,14.1352252 44.1814391,14.1342558 L44.1850665,14.1206831 C44.1853256,14.1197137 44.1853256,14.1197137 44.1846177,14.1184844 L44.1864314,14.1116981 C44.1895407,14.1000644 44.1916829,14.0881709 44.194533,14.0775067 C44.1947921,14.0765372 44.1938251,14.0762775 44.1938251,14.0762775 L44.1997844,14.0539796 C44.2000435,14.0530101 44.1998539,14.0498419 44.200113,14.0488724 L44.2055541,14.0285135 C44.2048462,14.0272842 44.2051053,14.0263147 44.2051053,14.0263147 L44.212101,14.0001389 C44.2111341,13.9998792 44.2113932,13.9989097 44.2116523,13.9979402 L44.2170934,13.9775812 C44.2176116,13.9756423 44.2181298,13.9737033 44.217681,13.9715046 L44.2259722,13.9404814 C44.2262313,13.939512 44.2257826,13.9373133 44.2263008,13.9353743 L44.2343329,13.9053206 C44.234592,13.9043511 44.2351102,13.9024122 44.2344023,13.9011829 L44.246321,13.8565871 C44.2465801,13.8556176 44.2470983,13.8536787 44.2463904,13.8524494 L44.2624546,13.792342 C44.2629728,13.7904031 44.262265,13.7891738 44.2625241,13.7882044 L44.3114941,13.6049737 C44.3120123,13.6030348 44.3125305,13.6010958 44.3140157,13.5994166 L44.3295618,13.5412482 C44.3303391,13.5383397 44.3318243,13.5366606 44.3326016,13.5337521 L44.3437429,13.4920647 C44.344002,13.4910953 44.3445202,13.4891563 44.3460054,13.4874771 L44.3545557,13.4554845 C44.3560409,13.4538053 44.3563,13.4528358 44.3568182,13.4508969 L44.361482,13.4334463 C44.3627775,13.428599 44.3643321,13.4227821 44.3668537,13.417225 L44.3730721,13.3939577 L44.3740391,13.3942174 L44.3758528,13.3874311 C44.396442,13.3181485 44.4187061,13.2503549 44.4407111,13.1835308 Z M11.5,37.5 L14,37.5 L14,38.5 L11.5,38.5 L11.5,41 L10.5,41 L10.5,38.5 L8,38.5 L8,37.5 L10.5,37.5 L10.5,35 L11.5,35 L11.5,37.5 Z M75.0485281,62.0485281 C74.579899,62.5171573 73.820101,62.5171573 73.3514719,62.0485281 C72.8828427,61.579899 72.8828427,60.820101 73.3514719,60.3514719 L78.1514719,55.5514719 C78.8110281,54.8919156 79.9379451,55.2040536 80.164171,56.1089572 L80.9511799,59.2569929 L83.1343598,57.8015396 C83.6103069,57.4842416 84.2440509,57.5469946 84.6485281,57.9514719 L86.4369437,59.7398874 L88.0633437,58.9266874 C88.6561179,58.6303003 89.3769255,58.8705695 89.6733126,59.4633437 C89.9696997,60.0561179 89.7294305,60.7769255 89.1366563,61.0733126 L86.7366563,62.2733126 C86.2746699,62.5043058 85.7167042,62.4137604 85.3514719,62.0485281 L83.6470985,60.3441548 L80.8656402,62.1984604 C80.1751733,62.6587717 79.2370943,62.2961039 79.035829,61.4910428 L78.3498659,58.7471904 L75.0485281,62.0485281 Z M51.3455846,52.355763 L60,49.1428571 L59.6285585,49.8806496 C59.3545112,50.4249884 58.8885995,50.8439328 58.3243062,51.0534237 L53.080928,53 L58.3243062,54.9465763 C58.8885995,55.1560672 59.3545112,55.5750116 59.6285585,56.1193504 L60,56.8571429 L51.3455846,53.644237 L47.2562632,55.162376 C48.0027509,55.5691123 48.6101922,56.2466804 48.9221424,57.1208753 C49.5948215,59.0059605 48.6387612,61.0915013 46.7867218,61.7790611 C44.9346825,62.4666209 42.8879937,61.4958347 42.2153146,59.6107495 C41.5426355,57.7256643 42.4986958,55.6401235 44.3507352,54.9525637 L49.6102412,53 L44.3507352,51.0474363 C42.4986958,50.3598765 41.5426355,48.2743357 42.2153146,46.3892505 C42.8879937,44.5041653 44.9346825,43.5333791 46.7867218,44.2209389 C48.6387612,44.9084987 49.5948215,46.9940395 48.9221424,48.8791247 C48.6101922,49.7533196 48.0027509,50.4308877 47.2562632,50.837624 L51.3455846,52.355763 Z M43.3331192,46.8042295 C42.8846665,48.060953 43.52204,49.4513135 44.7567329,49.9096867 C45.9914258,50.3680599 47.355885,49.7208691 47.8043378,48.4641457 C48.2527905,47.2074222 47.615417,45.8170617 46.380724,45.3586885 C45.1460311,44.9003153 43.781572,45.547506 43.3331192,46.8042295 Z M43.3331192,59.1957705 C43.781572,60.452494 45.1460311,61.0996847 46.380724,60.6413115 C47.615417,60.1829383 48.2527905,58.7925778 47.8043378,57.5358543 C47.355885,56.2791309 45.9914258,55.6319401 44.7567329,56.0903133 C43.52204,56.5486865 42.8846665,57.939047 43.3331192,59.1957705 Z M94.6363636,54.8181818 L105.545455,43.9090909 L104.090909,42.4545455 L93.1818182,53.3636364 L94.6363636,54.8181818 Z M93.9090909,55.5454545 L92.4545455,54.0909091 L92.028519,54.5169356 L92.028519,55.971481 L93.4830644,55.971481 L93.9090909,55.5454545 Z M104.090909,41 L107,43.9090909 L93.9090909,57 L91,57 L91,54.0909091 L104.090909,41 Z M21.7727273,30 C20.115873,30 18.7727273,28.6568542 18.7727273,27 C18.7727273,25.3431458 20.115873,24 21.7727273,24 C23.4295815,24 24.7727273,25.3431458 24.7727273,27 C24.7727273,28.6568542 23.4295815,30 21.7727273,30 Z M21.7727273,29.04 C22.8993882,29.04 23.8127273,28.1266609 23.8127273,27 C23.8127273,25.8733391 22.8993882,24.96 21.7727273,24.96 C20.6460664,24.96 19.7327273,25.8733391 19.7327273,27 C19.7327273,28.1266609 20.6460664,29.04 21.7727273,29.04 Z M138,58 C136.343146,58 135,56.6568542 135,55 C135,53.3431458 136.343146,52 138,52 C139.656854,52 141,53.3431458 141,55 C141,56.6568542 139.656854,58 138,58 Z M138,57.04 C139.126661,57.04 140.04,56.1266609 140.04,55 C140.04,53.8733391 139.126661,52.96 138,52.96 C136.873339,52.96 135.96,53.8733391 135.96,55 C135.96,56.1266609 136.873339,57.04 138,57.04 Z"/>
  <path fill="#212121" fill-rule="nonzero" d="M87,16.7071068 L87,26 L96.2928932,26 L87,16.7071068 Z M86,16.5 L65,16.5 L65,15.5 L87.2071068,15.5 L97.5,25.7928932 L97.5,44 L96.5,44 L96.5,27 L87,27 L86,27 L86,16.5 Z M53.5,28 L53.5,49 L52.5,49 L52.5,28 L53.5,28 Z M96.5,75.5 L96.5,58 L97.5,58 L97.5,76.5 L52.5,76.5 L52.5,58 L53.5,58 L53.5,75.5 L96.5,75.5 Z M72,65 L91,65 L91,67 L72,67 L72,65 Z M68,53 L68,54 L66,54 L66,53 L68,53 Z M64,53 L64,54 L62,54 L62,53 L64,53 Z M72,53 L72,54 L70,54 L70,53 L72,53 Z M124.050909,24.4699211 L122.620749,25.8824424 L120.652798,20.8081522 L125.931176,22.6128439 L124.71419,23.8148202 C130.469165,30.6660041 131.068769,37.0661668 126.452181,42.8632887 L125.714618,42.2377546 C130.019377,36.8322008 129.484907,30.9598311 124.050909,24.4699211 Z M22.7792181,66.5300789 L24.2093777,65.1175576 L26.1773289,70.1918478 L20.8989512,68.3871561 L22.1159368,67.1851798 C16.3609618,60.3339959 15.7613585,53.9338332 20.3779458,48.1367113 L21.115509,48.7622454 C16.8107503,54.1677992 17.3452196,60.0401689 22.7792181,66.5300789 Z"/>
</svg>