<svg xmlns="http://www.w3.org/2000/svg" width="150" height="90" viewBox="0 0 150 90">
  <path fill="#212121" fill-rule="nonzero" d="M53.1086957,16.5 L78.2071068,16.5 L87.5,25.7928932 L87.5,74 C87.5,74.8284271 86.8284271,75.5 86,75.5 L45,75.5 C44.1715729,75.5 43.5,74.8284271 43.5,74 L43.5,18 C43.5,17.1715729 44.1715729,16.5 45,16.5 L52.1086957,16.5 L52.1086957,10 C52.1086957,9.17157288 52.7802685,8.5 53.6086957,8.5 L87.250585,8.5 L96.1521739,17.4015889 L96.1521739,53 L95.1521739,53 L95.1521739,17.8158024 L86.8363715,9.5 L53.6086957,9.5 C53.3325533,9.5 53.1086957,9.72385763 53.1086957,10 L53.1086957,16.5 Z M86.5,27 L77,27 L77,26 L77,17.5 L45,17.5 C44.7238576,17.5 44.5,17.7238576 44.5,18 L44.5,74 C44.5,74.2761424 44.7238576,74.5 45,74.5 L86,74.5 C86.2761424,74.5 86.5,74.2761424 86.5,74 L86.5,27 Z M86.2928932,26 L78,17.7071068 L78,26 L86.2928932,26 Z"/>
  <path fill="#007bff" fill-rule="nonzero" d="M77,56.3478261 L77,54 C77,53.4477153 77.4477153,53 78,53 L105,53 C105.552285,53 106,53.4477153 106,54 L106,80 C106,80.5522847 105.552285,81 105,81 L78,81 C77.4477153,81 77,80.5522847 77,80 L77,64.9565217 L52.6086957,64.9565217 L52.6086957,63.5217391 L77,63.5217391 L77,57.7826087 L52.6086957,57.7826087 L52.6086957,56.3478261 L77,56.3478261 Z M120.805353,49.1946468 C121.064882,49.4541759 121.064882,49.8749557 120.805353,50.1344847 L119.407397,51.5324411 C119.147868,51.7919702 118.727088,51.7919702 118.467559,51.5324411 C118.20803,51.2729121 118.20803,50.8521323 118.467559,50.5926032 L119.865515,49.1946468 C120.125044,48.9351177 120.545824,48.9351177 120.805353,49.1946468 Z M117.532441,52.4675589 C117.79197,52.7270879 117.79197,53.1478677 117.532441,53.4073968 L116.134485,54.8053532 C115.874956,55.0648823 115.454176,55.0648823 115.194647,54.8053532 C114.935118,54.5458241 114.935118,54.1250443 115.194647,53.8655153 L116.592603,52.4675589 C116.852132,52.2080298 117.272912,52.2080298 117.532441,52.4675589 Z M120.805353,54.8053532 C120.545824,55.0648823 120.125044,55.0648823 119.865515,54.8053532 L118.467559,53.4073968 C118.20803,53.1478677 118.20803,52.7270879 118.467559,52.4675589 C118.727088,52.2080298 119.147868,52.2080298 119.407397,52.4675589 L120.805353,53.8655153 C121.064882,54.1250443 121.064882,54.5458241 120.805353,54.8053532 Z M117.532441,51.5324411 C117.272912,51.7919702 116.852132,51.7919702 116.592603,51.5324411 L115.194647,50.1344847 C114.935118,49.8749557 114.935118,49.4541759 115.194647,49.1946468 C115.454176,48.9351177 115.874956,48.9351177 116.134485,49.1946468 L117.532441,50.5926032 C117.79197,50.8521323 117.79197,51.2729121 117.532441,51.5324411 Z M28.8053532,27.1946468 C29.0648823,27.4541759 29.0648823,27.8749557 28.8053532,28.1344847 L27.4073968,29.5324411 C27.1478677,29.7919702 26.7270879,29.7919702 26.4675589,29.5324411 C26.2080298,29.2729121 26.2080298,28.8521323 26.4675589,28.5926032 L27.8655153,27.1946468 C28.1250443,26.9351177 28.5458241,26.9351177 28.8053532,27.1946468 Z M25.5324411,30.4675589 C25.7919702,30.7270879 25.7919702,31.1478677 25.5324411,31.4073968 L24.1344847,32.8053532 C23.8749557,33.0648823 23.4541759,33.0648823 23.1946468,32.8053532 C22.9351177,32.5458241 22.9351177,32.1250443 23.1946468,31.8655153 L24.5926032,30.4675589 C24.8521323,30.2080298 25.2729121,30.2080298 25.5324411,30.4675589 Z M28.8053532,32.8053532 C28.5458241,33.0648823 28.1250443,33.0648823 27.8655153,32.8053532 L26.4675589,31.4073968 C26.2080298,31.1478677 26.2080298,30.7270879 26.4675589,30.4675589 C26.7270879,30.2080298 27.1478677,30.2080298 27.4073968,30.4675589 L28.8053532,31.8655153 C29.0648823,32.1250443 29.0648823,32.5458241 28.8053532,32.8053532 Z M25.5324411,29.5324411 C25.2729121,29.7919702 24.8521323,29.7919702 24.5926032,29.5324411 L23.1946468,28.1344847 C22.9351177,27.8749557 22.9351177,27.4541759 23.1946468,27.1946468 C23.4541759,26.9351177 23.8749557,26.9351177 24.1344847,27.1946468 L25.5324411,28.5926032 C25.7919702,28.8521323 25.7919702,29.2729121 25.5324411,29.5324411 Z M37.5,11.5 L40,11.5 L40,12.5 L37.5,12.5 L37.5,15 L36.5,15 L36.5,12.5 L34,12.5 L34,11.5 L36.5,11.5 L36.5,9 L37.5,9 L37.5,11.5 Z M33,53 C31.3431458,53 30,51.6568542 30,50 C30,48.3431458 31.3431458,47 33,47 C34.6568542,47 36,48.3431458 36,50 C36,51.6568542 34.6568542,53 33,53 Z M33,52.04 C34.1266609,52.04 35.04,51.1266609 35.04,50 C35.04,48.8733391 34.1266609,47.96 33,47.96 C31.8733391,47.96 30.96,48.8733391 30.96,50 C30.96,51.1266609 31.8733391,52.04 33,52.04 Z M112,29 C110.343146,29 109,27.6568542 109,26 C109,24.3431458 110.343146,23 112,23 C113.656854,23 115,24.3431458 115,26 C115,27.6568542 113.656854,29 112,29 Z M112,28.04 C113.126661,28.04 114.04,27.1266609 114.04,26 C114.04,24.8733391 113.126661,23.96 112,23.96 C110.873339,23.96 109.96,24.8733391 109.96,26 C109.96,27.1266609 110.873339,28.04 112,28.04 Z M52.6086957,49.173913 L78.4347826,49.173913 L78.4347826,50.6086957 L52.6086957,50.6086957 L52.6086957,49.173913 Z M52.6086957,42 L78.4347826,42 L78.4347826,43.4347826 L52.6086957,43.4347826 L52.6086957,42 Z"/>
  <path fill="#F5F5F5" d="M97,74 L97,72 L98,72 L98,74 L98,75 L85,75 L85,74 L85,72 L86,72 L86,74 L97,74 Z M92,71.1904762 L94.3,69 L95,69.6666667 L91.5,73 L88,69.6666667 L88.7,69 L91,71.1904762 L91,59 L92,59 L92,71.1904762 Z"/>
</svg>